<?xml version="1.0" encoding="UTF-8"?>
<svg width="2163px" height="327px" viewBox="0 0 2163 327" version="1.1" xmlns="http://www.w3.org/2000/svg" xmlns:xlink="http://www.w3.org/1999/xlink">
    <title>Group 12</title>
    <g id="Page-1" stroke="none" stroke-width="1" fill="none" fill-rule="evenodd">
        <g id="Group-12" transform="translate(1, 3)" stroke="#000000">
            <path d="M1605,308 C1567.66113,279.176494 1519.95308,270.160045 1482.84137,240.26151 C1394.67898,169.234703 1417.04759,179.215448 1256.27532,69.2316176 C1224.14063,47.248371 1168.30963,-10.0657527 1122.90615,21.0572764 C1090.9159,42.9858536 1065.14549,72.9584821 1034.38211,96.5797825 C1014.35665,111.956104 991.39081,123.132304 970.849886,137.8119 C941.215644,158.990046 914.015487,183.501131 883.961346,204.078162 C847.064409,229.34022 813.885946,284.73479 770.210871,275.182499 L759,278.758712" id="Path-28" stroke-width="5"></path>
            <path d="M1153,13 C1134.19716,28.1212264 1125.40246,35.859722 1116.80615,58.8993689 C1113.03765,68.9996331 1112.20804,80.2725374 1107.05354,89.737626 C1100.21585,102.293506 1089.41187,112.251974 1081.33066,124.042136 C1070.52157,139.81215 1061.79102,156.993651 1050.421,172.362186 C1041.97262,183.781623 1031.33216,193.39843 1022.06008,204.15651 C1016.07817,211.09712 1010.13663,218.091525 1004.66934,225.446299 C991.217628,243.541977 980.042888,262.872545 961.53137,276.671166 C958.100004,279.228932 953.420885,279.713945 949.972716,282.248904 C926.378728,299.59428 947.095247,289.989059 933,296" id="Path-29" stroke-width="4"></path>
            <path d="M1126,39 C1105.35257,51.4657699 1089.45839,60.1972547 1074.97494,79.3247585 C1069.66024,86.3435982 1066.7341,95.1341699 1060.73766,101.577116 C1043.65546,119.931295 1023.49493,135.204527 1006.13297,153.292865 C991.176202,168.875378 986.855619,182.85041 970.344731,195.809452 C955.574299,207.402446 936.433377,203.619786 921.241545,213.934816 C913.033127,219.508211 906.763756,227.601221 898.715433,233.404609 C889.773483,239.852364 879.260445,243.935647 870.448089,250.560354 C849.932771,265.982787 843.789005,276.822936 820,284" id="Path-30" stroke-width="3"></path>
            <path d="M873,285 C908.303616,280.262248 911.036267,266.403223 936.795517,244.694165 C949.01117,234.39921 962.578243,225.799442 975.076901,215.847992 C982.331937,210.071521 989.341499,203.969911 996.020244,197.539344 C1007.69384,186.299534 1017.26367,172.774465 1030.09748,162.871939 C1041.51198,154.064549 1055.36583,148.957313 1068,142" id="Path-31" stroke-width="3"></path>
            <path d="M1209,33.9309936 C1219.31383,31.4924925 1229.85843,29.8769949 1239.9415,26.6154904 C1251.81403,22.7751611 1269.99235,16.613954 1294.47645,8.13186907 C1320.37781,29.3943491 1347.21763,37.4527695 1374.99591,32.3071305 C1393.87091,28.810734 1423.58705,18.1433069 1464.14435,0.304849082 C1479.27187,-0.94698959 1498.54812,1.65660419 1521.97312,8.11563044 C1557.11061,17.8041698 1574.73831,29.0461082 1606.71354,50.1087294 C1619.50514,58.5347671 1622.1695,66.4967471 1638.21214,68.9901972 C1680.41009,75.5488727 1709.57169,64.905022 1751.92642,81.4980025 C1794.28114,98.0909829 1806.15531,130.205119 1831.53856,133.851348 C1854.93746,137.212531 1878.81642,134.694482 1902.43278,135.747208 C1904.01335,135.817664 1920.9124,151.345695 1928.47829,157.766791 C1939.21034,166.874984 1951.13792,174.525113 1961.77425,183.744541 C1970.77583,191.546989 1977.89902,201.433117 1987.29926,208.752032 C2074.17782,276.39465 2023.03413,225.076136 2063,267" id="Path-32" stroke-width="5"></path>
            <path d="M1495,4 C1487.32566,7.6947043 1465.53145,16.7525361 1460.58361,26.8311956 C1453.5607,41.1367573 1450.44643,57.0716501 1444.42849,71.8281082 C1443.23455,74.7557399 1441.64581,77.8377034 1439.0475,79.6393677 C1407.58213,101.457418 1369.60707,114.302201 1332,119" id="Path-33" stroke-width="4"></path>
            <path d="M1300.01818,11 C1297.345,24.6345426 1293.708,35.7236588 1295.45886,49.5263003 C1298.20118,71.1450979 1302.91688,60.6350557 1309.70021,86.398147 C1311.53522,93.3675295 1310.56674,100.799382 1311,108" id="Path-34" stroke-width="4"></path>
            <path d="M1296,30 C1271.24214,30.6017446 1256.15493,40.5019487 1240,60" id="Path-35" stroke-width="2"></path>
            <path d="M1295,37 C1275.71281,43.2334539 1262.70501,53.8780791 1248,67" id="Path-36" stroke-width="2"></path>
            <path d="M1295,57 C1286,64 1277,71 1268,78" id="Path-37" stroke-width="2"></path>
            <path d="M1507,7 C1501.12807,20.9896889 1498.03771,26.6903118 1495.02632,42.9678638 C1489.55933,72.5187082 1491.0089,115.373936 1462.29838,134.736453 C1451.23969,142.194491 1441.09171,154.021902 1427.77113,154.981314 C1420.00461,155.540697 1417.34163,143.392705 1411.37966,138.403868 C1407.84577,135.446793 1403.91449,132.657089 1399.49767,131.322732 C1371.18918,122.770509 1359.74116,123.256208 1332,121.221612" id="Path-38" stroke-width="4"></path>
            <path d="M1503,6 C1483.81906,21.7392268 1469.34786,30.4549992 1460.85077,53.7524378 C1455.18608,69.2839624 1453.20064,86.2394573 1445.68989,100.971816 C1436.95322,118.10884 1412.87017,117.207238 1403,133" id="Path-39" stroke-width="2"></path>
            <path d="M1380,128 C1406.81643,103.005057 1398.66242,113.9538 1409,99" id="Path-40" stroke-width="2"></path>
            <path d="M1490,82 C1504.82224,122.055594 1497.23664,105.765534 1536.44812,127.540698 C1567.21256,144.625004 1570.0414,154.637958 1604.47231,168.608721 C1624.45009,176.714945 1646.85168,178.410976 1666.18503,187.956395 C1675.5766,192.593275 1680.70386,203.096835 1688.50077,210.09593 C1690.68775,212.059126 1693.17702,213.922193 1696.00302,214.723256 C1770.18147,235.74996 1702.62717,210.000983 1784.81894,237.05814 C1793.40546,239.884784 1801.17214,244.86662 1809.72349,247.798256 C1872.17788,269.209335 1867.23767,266.300312 1927,278" id="Path-41" stroke-width="4"></path>
            <path d="M1597,165 C1582.16031,177.165728 1562.91617,182.424196 1548.68666,195.184884 C1519.96653,220.940417 1537.1473,227.274196 1495,249" id="Path-42" stroke-width="2"></path>
            <path d="M1591,163 C1564.73044,165.201053 1552.44373,176.674938 1529.33755,184.631684 C1519.64586,187.969072 1509.14441,188.064156 1499.21275,190.554111 C1486.19202,193.81852 1456.01186,213.277317 1453,215" id="Path-43" stroke-width="2"></path>
            <path d="M1617,172 C1604.42853,185.408269 1605.05991,203.754252 1592.49843,218.122487 C1534.5395,284.417811 1569.65267,235.059065 1543,274" id="Path-44" stroke-width="2"></path>
            <path d="M1631,176 C1614.13323,180.632728 1618.71527,190.564595 1613.39228,204.68083 C1601.57216,236.027023 1586.08811,256.76433 1561.18055,279.905261 C1560.57841,280.464688 1561.65555,278.395852 1561.89306,277.641148" id="Path-45" stroke-width="2"></path>
            <path d="M1568,148 C1531.35138,148.44578 1524.73182,156.283056 1489.59606,163.824529 C1477.03572,166.520458 1441.56761,163.891273 1432.07742,162.748594 C1430.95645,162.613622 1427.33306,158.568197 1420,148.562797" id="Path-46" stroke-width="4"></path>
            <path d="M1550,136.481548 C1520.93087,135.907618 1490.5693,140.505861 1462,136" id="Path-47" stroke-width="2"></path>
            <path d="M1449,146.154789 C1533.00403,147.061858 1498.03694,152.500309 1555,139" id="Path-48" stroke-width="2"></path>
            <path d="M1662,73 C1690.32705,160.042304 1748.14641,158.007345 1823.13965,197.481721 C1870.07558,222.187506 1915.04655,250.493907 1961,277" id="Path-49" stroke-width="4"></path>
            <path d="M1660.97596,73 C1653.59404,120.383723 1646.62759,120.473011 1658.01552,157.663283 C1662.93963,173.74426 1681.17296,182.34446 1679.94038,200" id="Path-50" stroke-width="4"></path>
            <path d="M1687,119 C1673.84385,131.827883 1677.4762,140.181578 1652,138.863608" id="Path-51" stroke-width="2" stroke-linejoin="bevel"></path>
            <path d="M1655,148 C1684.71298,144.628412 1672.91409,142.831889 1696,131" id="Path-52" stroke-width="2" stroke-linejoin="bevel"></path>
            <path d="M1701,137 C1673.02958,157.84975 1688.56395,153.40907 1656,153.934407" id="Path-53" stroke-width="2" stroke-linejoin="bevel"></path>
            <path d="M1662,165 C1702.85655,162.17205 1686.54512,170.619766 1713,145" id="Path-54" stroke-width="2" stroke-linejoin="bevel"></path>
            <path d="M1721,150 C1705.72256,174.026602 1708.90903,191.440846 1710.12884,219" id="Path-55" stroke-width="2" stroke-linejoin="bevel"></path>
            <path d="M1728,155 C1713.92437,176.943967 1725.53225,157.343945 1724.92051,223" id="Path-56" stroke-width="2" stroke-linejoin="bevel"></path>
            <path d="M1739,162 C1731.62208,176.627044 1732.32745,212.378038 1731,223" id="Path-57" stroke-width="2" stroke-linejoin="bevel"></path>
            <path d="M1747.34426,167 C1743.03739,207.624051 1742.51498,187.962234 1748,226" id="Path-58" stroke-width="2" stroke-linejoin="bevel"></path>
            <path d="M1965,187.313516 C1976.33609,179.72595 1986.93728,170.911905 1999.00828,164.550817 C2001.8098,163.074491 2006.48562,162.224218 2013.03573,162 C2055.78646,196.908958 2078.60911,215.460848 2081.50367,217.655671 C2103.9784,234.697323 2133.98184,250.90852 2161,259" id="Path-59" stroke-width="4"></path>
            <path d="M2009.04899,162 C2010.25267,168.758384 2010.20746,178.679438 2012.29259,185.215142 C2016.34117,197.905202 2027.16547,209.019863 2026.99808,222.352055 C2026.93091,227.701955 2017.09018,218.400038 2011.88846,217.402634 C2007.0057,216.466391 2001.96282,216.867598 1997,216.60008" id="Path-60" stroke-width="2"></path>
            <path d="M1997,169 C2004.67852,175.16534 2000.14867,172.292541 2011,177" id="Path-61"></path>
            <path d="M1992,170 C1998.33333,173.666667 2004.66667,177.333333 2011,181" id="Path-62"></path>
            <path d="M1989,173 C2004.8676,182.777235 1997.09902,178.970808 2012,185" id="Path-63"></path>
            <path d="M2013,187 C1996.81739,188.404791 1993.42799,192.641918 1982,204" id="Path-64"></path>
            <path d="M1986,206 C1989.51212,203.770688 1990.06834,200.775997 1992.80359,198.327657 C1994.14974,197.12272 1996.81309,195.474254 2000.79367,193.382261 C2006.91519,193.349191 2011.65064,193.221771 2015,193" id="Path-65"></path>
            <path d="M1989,210 C1992.51212,207.770688 1993.06834,204.775997 1995.80359,202.327657 C1997.14974,201.12272 2000.83548,200.158176 2006.86081,199.434026 C2010.93758,198.033113 2014.65064,197.221771 2018,197" id="Path-65-Copy"></path>
            <path d="M2005,182 C1984.68699,185.599289 1984.43769,175.855857 1977,199" id="Path-66"></path>
            <path d="M1980,201 C1989.75377,181.596735 1981.7625,188.277667 2008,187.51837" id="Path-67"></path>
            <path d="M1999,179 C1995.59131,178.998449 1991.99918,177.001553 1988.59049,177 C1984.93885,176.998341 1981.65164,178.855638 1978,178.853976" id="Path-68"></path>
            <path d="M1821,133 C1828.28356,140.48 1828.55884,151.309203 1855.25334,170.640951 C1861.55936,175.207669 1877.80824,183.660686 1904,196 L1894.04662,161.954465 C1901.03513,150.037258 1903.63932,141.240012 1901.85919,135.562728" id="Path-69" stroke-width="2"></path>
            <path d="M1840.26957,136 C1841.16841,150.521361 1841.70318,143.527322 1839,157" id="Path-70"></path>
            <path d="M1849.59611,136 C1849.75742,155.939248 1851.77423,147.046804 1845,163" id="Path-71"></path>
            <path d="M1853,169 C1854.32734,147.580963 1854.2968,158.247709 1853.1249,137" id="Path-72"></path>
            <path d="M1862,138 C1857.97571,148.845645 1854.04799,163.394074 1860.17991,174" id="Path-73"></path>
            <path d="M1893,190 C1865.78553,180.697273 1874.58937,157.416529 1859,148" id="Path-74"></path>
            <path d="M1901,193 C1871.65212,183.374435 1879.4139,152.691716 1860,142" id="Path-75"></path>
            <path d="M1895,159 C1871.36791,153.822639 1888.85424,143.294602 1860,141" id="Path-76"></path>
            <path d="M1897.61062,155 C1897.15557,154.896843 1899.37009,150.46671 1898.94563,150.35945 C1877.86046,145.031281 1889.60004,141.271126 1862,139" id="Path-76-Copy"></path>
            <path d="M1058,75.761659 C1042.19699,74.9447515 979.065103,70.0406299 949.928904,71.8666701 C910.848673,74.3159281 941.025877,78.5310668 882.213779,87.3894667 C855.32782,91.4390853 828.058586,92.3927119 800.916614,93.9546053 C768.923724,95.7956462 734.838464,59.3833834 700.45341,52.4325533 C674.187669,47.1230166 654.420822,66.4082734 628.511678,66.2079126 C607.909046,66.0485881 600.564199,51.4326387 582.652989,48.3905837 C558.329331,44.259433 526.639944,38.7743757 503.404103,48.1782782 C494.998249,51.5802568 487.990129,57.9042327 479.645694,61.4555361 C430.675385,82.2967807 433.195476,64.0549487 394,110" id="Path-77" stroke-width="5"></path>
            <path d="M806,269.759016 C802.725851,268.341742 761.933298,252.035126 758.655449,250.646946 C723.45147,235.737944 688.03813,222.40652 652.502247,208.495627 C639.879008,203.554128 626.03019,201.621804 614.01542,195.348907 C555.305205,164.696372 590.668195,167.749311 534.088126,150.784857 C493.040124,138.477396 450.961938,129.798769 409.872502,117.629787 C382.43625,109.504311 333.486729,83.388632 315.551298,86.2124565 C297.615867,89.0362809 233.197522,138.880699 199.041176,166.887355 C184.57058,178.752588 154.306281,198.971477 136.363791,208.625551 C113.983041,220.667662 98.3770524,224.855102 78.8369697,239.466343 C53.6066107,258.33253 31.4390429,280.716726 0,289" id="Path-78" stroke-width="5"></path>
            <path d="M273.226562,112.039062 C281.977865,118.738281 290.345311,125.971192 299.480469,132.136719 C303.488586,134.841889 309.864019,134.486476 312.496094,138.542969 C316.658014,144.957222 315.323079,153.658864 318.074219,160.792969 C321.267475,169.073547 334.226171,185.281832 332.589844,197.863281 C331.436449,206.731545 327.136298,234.855856 320.203125,248.246094 C312.724019,262.690707 312.351448,256.628719 297.214844,269.609375 C281.825294,282.806949 274.083771,304.433664 266.214844,322.667969" id="Path-91" stroke-width="2"></path>
            <path d="M613,64 C654.952862,95.8353697 650.404646,93.4280416 700.772968,114.442698 C717.173691,121.285402 735.065906,124.69891 750.672887,133.203691 C757.183812,136.751719 760.324344,144.495977 765.563198,149.749124 C767.081205,151.271273 768.742543,153.028895 770.851118,153.436974 C778.553056,154.927553 786.565508,154.059015 794.309404,155.312462 C836.627973,162.162255 877.808985,173.460632 921,175" id="Path-79" stroke-width="4"></path>
            <path d="M629.185547,76 C604.39784,87.5921715 605.498166,57.1445208 561.712084,70.2928122 C535.05201,78.2984252 523.745779,86.6464762 516.155362,90.0639285 C508.228225,93.6329826 501.386831,100.179302 493.535755,103.987413 C487.745094,106.796133 481.206459,106.893643 475.451163,109.807221 C439.89585,127.806849 447.899443,126.078546 445,127" id="Path-80" stroke-width="4"></path>
            <path d="M585.383789,66.9294392 C608.551865,95.7316634 617.165597,98.8529167 649.408469,119.227974 C666.042025,129.739124 681.456473,142.375966 698.6125,151.930289 C740.020694,174.990831 757.709903,173.206561 804.694644,189.535708 C860.151661,208.809322 850.856914,209.129866 873,215" id="Path-81" stroke-width="2"></path>
            <path d="M577,68 C584.757456,80.1373962 594.100797,96.7845918 605.261178,106.105193 C675.555545,164.811586 775.378691,196.675965 858,229" id="Path-82" stroke-width="2"></path>
            <path d="M571,68 C581.867723,88.9709192 587.609836,106.515419 602.436327,122.55335 C644.599136,168.161186 705.71819,194.769927 755.304101,228.267873 C818.124579,270.706479 798.877104,262.257302 811,269" id="Path-83" stroke-width="2"></path>
            <path d="M561,72 C591.108299,143.999011 629.816806,172.873629 687,223" id="Path-84" stroke-width="2"></path>
            <path d="M551.026367,74.1591797 C566.907476,111.143762 587.100034,140.944163 590.253906,181.361328" id="Path-85" stroke-width="2"></path>
            <path d="M542,78 C543,103 544,128 545,153" id="Path-86" stroke-width="2"></path>
            <path d="M535,81 C536.333333,104 537.666667,127 539,150" id="Path-87" stroke-width="2"></path>
            <path d="M525,86 C527.333333,107.333333 529.666667,128.666667 532,150" id="Path-87-Copy" stroke-width="2"></path>
            <path d="M523,85 C518.824975,102.211219 505.359347,126.504914 498.5,140.96472" id="Path-88" stroke-width="2"></path>
            <path d="M513.849609,91.8388672 C506.858398,110 494,123.333333 485,138" id="Path-89" stroke-width="2"></path>
            <path d="M502,100 C484.902885,116.29269 494.210344,105.382179 478,136" id="Path-90" stroke-width="2"></path>
            <path d="M288.214844,123.981991 C259.101484,128.772074 272.15667,128.296907 249.214844,127.410517" id="Path-92" stroke-width="2"></path>
            <path d="M293.624023,128.27832 C270.277981,136.422843 263.18703,137.586143 238.169922,135.510742" id="Path-93" stroke-width="2"></path>
            <path d="M300.307617,132.828125 C269.359762,139.785377 258.783547,144.919597 224.300781,144.081055" id="Path-94" stroke-width="2"></path>
            <path d="M311.895508,138.494141 C275.185607,171.615104 255.378993,179.056412 201.125977,206.9375 C187.51792,213.930796 172.388426,217.814823 159.110352,225.416016 C154.843772,227.85847 153.282866,233.492774 149.421875,236.536133 C146.246044,239.039426 141.880819,239.569533 138.446289,241.704102 C110.844265,258.858829 84.0186442,276.026505 57.921875,295.459961" id="Path-95" stroke-width="2"></path>
            <path d="M315.183594,146.069336 C284.527191,164.982828 260.771546,185.302566 233.644531,209.376953 C225.484418,216.618801 202.931434,226.865917 193.689453,233.464844 C183.341146,240.853706 174.234398,249.884487 163.894531,257.285156 C139.026662,275.084115 113.430085,290.799509 91.3378906,312.794922" id="Path-96" stroke-width="2"></path>
            <path d="M317.989258,158.887695 C290.85159,174.572596 266.192748,187.348179 247.868164,213.530273 C246.702813,215.195322 230.3099,246.57609 222.950195,252.821289 C153.524052,311.73399 183.751316,271.541185 152.479492,318.84082" id="Path-97" stroke-width="2"></path>
            <path d="M304.776367,145.293575 C292.486039,145.567382 279.836389,143.248794 267.905386,146.114995 C258.155315,148.457269 251.002556,156.867874 241.665841,160.454705 C223.495414,167.435131 204.406192,171.928912 185.776367,177.666016" id="Path-98" stroke-width="2"></path>
            <path d="M176.942383,184.933594 C212.158616,180.238847 235.362679,168.879449 271.233398,169.514648" id="Path-99" stroke-width="2"></path>
            <path d="M164.303711,191.180664 C184.649079,194.696125 205.259256,191.956862 225.896484,193.21582" id="Path-100" stroke-width="2"></path>
            <path d="M148.362305,200.613281 C165.344109,209.745545 152.951767,203.849382 187.769531,212.533203" id="Path-101" stroke-width="2"></path>
            <path d="M127.15625,212.710938 C138.225587,216.343425 149.294921,219.975911 160.364258,223.608398" id="Path-102" stroke-width="2"></path>
            <path d="M114.167969,219.786133 C136.082373,234.281933 125.791262,228.912807 144.332031,237.185547" id="Path-103" stroke-width="2"></path>
            <path d="M414.929688,300.695313 C427.156176,290.41276 439.744982,280.522236 451.609152,269.847656 C467.832377,255.251092 473.289289,227.00765 497.202813,220.261719 C513.439513,215.681396 575.226328,216.336513 583.111676,216.703125 C620.444496,218.438832 657.657017,222.083333 694.929688,224.773438" id="Path-104" stroke-width="3"></path>
            <path d="M464.179688,254.322266 C477.171225,253.191406 490.131491,251.611886 503.154297,250.929688 C515.152851,250.301144 527.350247,252.406229 539.195312,250.392578 C557.664435,247.252843 575.028483,239.192699 593.412109,235.585938 C616.717339,231.013585 638.961411,236.49056 658.048828,223.617188" id="Path-105" stroke-width="2"></path>
            <path d="M450.775391,271.876953 C501.58408,274.353511 509.127493,277.98166 556.074219,269.416016 C568.434341,267.160855 580.244201,262.487564 592.507812,259.755859 C623.334958,252.889149 626.042615,255.488464 652.642578,247.078125 C671.781791,241.026715 680.244442,233.924336 696.386719,228.396484" id="Path-106" stroke-width="2"></path>
            <path d="M712.458984,234.792969 C698.916667,239.035156 685.051099,242.357478 671.832031,247.519531 C647.483821,257.027521 666.395423,255.764882 644.298828,261.478516 C634.727755,263.953359 624.752465,264.682419 615.214844,267.283203 C599.828108,271.478964 585.370432,279.229001 569.636719,281.837891 C538.449412,287.009222 461.134842,284.862497 432.529297,284.636719" id="Path-107" stroke-width="2"></path>
            <path d="M421.835938,296.082031 C483.864583,295.528646 545.980275,297.75311 607.921875,294.421875 C628.679871,293.305505 648.666339,286.087235 669.189453,282.779297 C773.949989,265.893877 624.045466,297.740062 779.695312,261.869141" id="Path-108" stroke-width="2"></path>
        </g>
    </g>
</svg>